<svg xmlns="http://www.w3.org/2000/svg" width="132" height="36" fill="none"><path fill="#FE8000" fill-rule="evenodd" d="M108.704 21.857c-.355-.49-.284-.77.071-1.26 2.486-3.011 4.901-6.022 7.387-9.033.143-.14.143-.35.214-.49-.143-.07-.356-.14-.498-.14h-5.611c-.852 0-1.421.28-1.918.91-1.705 2.101-3.409 4.201-5.043 6.232l-1.065 1.26c-.071 0-.071-.07-.142-.07 0-.21 0-.42.071-.63.497-3.57.994-7.212 1.491-10.782.142-.77 0-.91-.781-.91h-4.688c-.71 0-.923.14-1.065.91a2532 2532 0 0 1-3.481 22.825c-.142.77 0 .84.781.84H99.4c.569 0 .853-.28.924-.84.213-1.4.426-2.87.639-4.271l.71-4.621c.213.28.356.42.498.63 1.917 2.8 3.835 5.531 5.682 8.332.426.56.852.84 1.563.84h5.327c.213 0 .426-.07.71-.07-.142-.21-.142-.35-.284-.49a723 723 0 0 1-6.464-9.172m-63.5 0c-.142-.28-.213-.49 0-.77 2.486-2.941 5.043-5.812 7.529-8.752.355-.35.64-.77.994-1.26-.213-.07-.355-.07-.497-.07h-6.393c-.355 0-.78.28-.994.56-.426.42-.71.91-1.065 1.33-.924 1.19-1.847 2.31-2.842 3.57-.142-.28-.284-.49-.355-.7-.71-1.4-1.42-2.87-2.13-4.27-.214-.42-.498-.63-.995-.63h-4.901c-.355 0-.71.07-1.066.14.142.35.285.7.427.98l4.9 8.191c.143.28.285.49 0 .77-2.628 2.941-5.185 5.882-7.813 8.823-.426.49-.852.98-1.35 1.61.214.07.285.07.427.07h6.393c.426 0 .852-.21 1.136-.56 1.066-1.19 1.989-2.38 2.983-3.641.427-.56.924-1.05 1.42-1.68.143.21.214.28.285.42.852 1.54 1.634 3.08 2.486 4.62.284.56.71.841 1.35.841h5.043c.213 0 .426-.07.71-.14-.142-.28-.213-.56-.355-.7-1.776-2.8-3.551-5.812-5.327-8.752m86.088-10.923h-3.268c.214-1.12.427-2.17.64-3.22.071-.49-.071-.7-.497-.7h-5.399c-.497 0-.639.21-.781.63-.142.91-.355 1.89-.568 2.8-.071.35-.213.49-.569.49-.71 0-1.42-.07-2.059 0-.356 0-.782.21-.924.42-1.065 1.26-1.989 2.591-2.983 3.921-.142.14-.213.35-.355.63h5.966c-.071.28-.071.42-.071.63-.426 2.171-.852 4.272-1.136 6.442-.213 1.19-.355 2.45-.284 3.64.213 2.451 1.562 4.062 3.835 4.832 2.486.84 4.83.28 7.103-.84.568-.28.853-.7.853-1.33l.213-3.571c0-.49.071-.98.071-1.61-.355.21-.569.35-.782.49-.923.56-1.846 1.05-2.912 1.12s-1.705-.42-1.705-1.47q0-1.05.214-2.101l1.278-6.302h3.125c.498 0 .853-.21.995-.7.284-1.19.497-2.31.71-3.5 0-.42-.213-.7-.71-.7m-62.08.91c-2.131-1.33-4.475-1.47-6.82-1.12-.283.07-.638.07-.994.14.071-.35.143-.63.214-.91.142-.77 0-1.05-.853-1.05h-4.333c-.639 0-.923.28-1.136.84-.142.49-.213.91-.284 1.4-1.492 7.912-2.557 15.894-3.694 23.806-.142.77.071 1.05.924 1.05h4.404c.852 0 1.136-.28 1.278-1.19.142-1.19.355-2.38.497-3.641.213.07.355.14.498.14 1.136.21 2.343.49 3.48.49 3.694 0 6.748-1.54 8.808-4.691 1.846-2.73 2.344-5.811 1.846-9.032-.355-2.59-1.562-4.761-3.835-6.232m-3.41 11.203c-.994 2.8-3.48 3.85-6.037 3.43-.497-.07-.568-.49-.497-.91.142-.98.284-2.03.426-3.01.284-1.89.639-3.71.852-5.601.213-1.54.568-1.47 1.776-1.54 2.344 0 3.693 1.26 3.978 3.57.142 1.4 0 2.8-.498 4.061m-36.438 2.45c-.355.14-.568.21-.781.28-1.563.56-3.126 1.26-4.76 1.401-1.278.14-2.556.21-3.764-.21-1.492-.49-2.344-2.31-2.13-3.43h11.506c.852 0 1.137-.21 1.208-1.051.07-1.26.213-2.52.142-3.781-.213-2.94-1.35-5.391-3.907-6.931-3.48-2.101-8.595-1.47-11.72 1.4-1.705 1.54-2.912 3.43-3.551 5.671-.143.42-.284.63-.782.56a7 7 0 0 0-1.704 0c-.356.07-.782.28-.995.49-.781.91-1.42 1.82-2.13 2.801-.143.21-.285.49-.498.77.355.07.568.07.852.07h4.191c.568 0 .71.14.781.7.498 3.151 2.131 5.532 5.115 6.722 3.835 1.54 7.742 1.26 11.506-.42.285-.14.498-.49.569-.77l.639-2.941c0-.35.071-.77.213-1.33m-9.02-9.662c1.349-1.26 3.48-.7 3.906 1.12.213.77.142 1.541.284 2.381h-6.25c.568-1.26.994-2.52 2.06-3.5m73.302 2.1c-.355-2.38-1.35-4.34-3.267-5.74-3.552-2.661-9.874-2.24-13.567 2.31-2.273 2.87-3.054 6.091-2.557 9.732.568 3.571 2.557 5.952 5.895 7.072 3.623 1.12 7.245.84 10.726-.7.213-.14.497-.42.497-.7.284-1.26.497-2.591.781-3.851v-.49c-.213.07-.426.14-.568.21-.923.35-1.918.77-2.841 1.05-1.776.56-3.552.84-5.398.42-1.634-.35-2.77-1.89-2.628-3.57h11.72c.71 0 .923-.21 1.065-.911.284-1.68.355-3.22.142-4.831m-6.25 1.051c0 .14-.214.42-.285.42h-5.824c.497-1.26.994-2.45 1.847-3.36.78-.84 1.704-.98 2.699-.7s1.35 1.19 1.491 2.17c.071.42.071.98.071 1.47" clip-rule="evenodd"/><path fill="#fff" fill-rule="evenodd" d="M5.169 2.495c.015-.09.03-.165.03-.225 0-.15-.076-.21-.289-.21-.397 0-1.342.39-1.921.69l-.84 4.72H0L1.265.332l1.89-.316-.014.812C4.299.286 5.214 0 6.069 0c.99 0 1.357.556 1.357 1.488 0 .256-.015.466-.077.842l-.914 5.14h-2.15zm3.678 8.223-.55-1.668c1.023-.376 1.693-.843 2.196-1.58h-.686L8.786.377l2.15-.3.564 5.456 1.555-3.653c.138-.361.184-.661.184-.932 0-.225-.031-.436-.077-.631l2.09-.3c.06.21.106.525.106.887 0 .42-.06.901-.244 1.322L12.72 7.471c-.854 1.684-1.601 2.525-3.873 3.247m11.21-8.658c0-.256-.228-.422-.625-.422-.777 0-1.006.437-1.113 1.038l-.091.511c.365-.09.533-.12.976-.255.578-.166.853-.437.853-.872m-3.888.706C16.474 1.082 17.236 0 19.585 0c1.402 0 2.47.601 2.47 1.834 0 1.428-.747 2.09-2.576 2.63-.9.271-.916.271-1.557.436l-.091.512c-.046.27-.015.51.381.51.778 0 1.907-.375 2.913-.81l.412 1.502c-.9.556-2.318 1.007-3.63 1.007-1.54 0-2.195-.66-2.195-1.908 0-.271.03-.572.091-.888z" clip-rule="evenodd"/></svg>